<svg xmlns="http://www.w3.org/2000/svg" xmlns:xlink="http://www.w3.org/1999/xlink" width="70" height="70" viewBox="0 0 70 70">
  <defs>
    <linearGradient id="linear-gradient" x1="1" x2="0" y2="1" gradientUnits="objectBoundingBox">
      <stop offset="0" stop-color="#7ae3e3"/>
      <stop offset="1" stop-color="#6a83ba"/>
    </linearGradient>
    <filter id="Oval" x="0" y="0" width="70" height="70" filterUnits="userSpaceOnUse">
      <feOffset dy="2" input="SourceAlpha"/>
      <feGaussianBlur stdDeviation="1" result="blur"/>
      <feFlood flood-opacity="0.161"/>
      <feComposite operator="in" in2="blur"/>
      <feComposite in="SourceGraphic"/>
    </filter>
  </defs>
  <g id="Groupe_2037" data-name="Groupe 2037" transform="translate(100 4281)">
    <g transform="matrix(1, 0, 0, 1, -100, -4281)" filter="url(#Oval)">
      <circle id="Oval-2" data-name="Oval" cx="32" cy="32" r="32" transform="translate(3 1)" fill="url(#linear-gradient)"/>
    </g>
    <g id="Union_6" data-name="Union 6" transform="translate(-77 -4260)" fill="none">
      <path d="M8.108,25V16.892H0V8.108H8.108V0h8.784V8.108H25v8.784H16.892V25Z" stroke="none"/>
      <path d="M 15.89201068878174 23.99990081787109 L 15.89201068878174 16.89200973510742 L 15.89201068878174 15.89201068878174 L 16.89200973510742 15.89201068878174 L 23.99990081787109 15.89201068878174 L 23.99990081787109 9.107890129089355 L 16.89200973510742 9.107890129089355 L 15.89201068878174 9.107890129089355 L 15.89201068878174 8.107890129089355 L 15.89201068878174 1.000000357627869 L 9.107890129089355 1.000000357627869 L 9.107890129089355 8.107890129089355 L 9.107890129089355 9.107890129089355 L 8.107890129089355 9.107890129089355 L 1.000000357627869 9.107890129089355 L 1.000000357627869 15.89201068878174 L 8.107890129089355 15.89201068878174 L 9.107890129089355 15.89201068878174 L 9.107890129089355 16.89200973510742 L 9.107890129089355 23.99990081787109 L 15.89201068878174 23.99990081787109 M 16.89200973510742 24.99990081787109 L 8.107890129089355 24.99990081787109 L 8.107890129089355 16.89200973510742 L 4.089355343239731e-07 16.89200973510742 L 4.089355343239731e-07 8.107890129089355 L 8.107890129089355 8.107890129089355 L 8.107890129089355 4.089355343239731e-07 L 16.89200973510742 4.089355343239731e-07 L 16.89200973510742 8.107890129089355 L 24.99990081787109 8.107890129089355 L 24.99990081787109 16.89200973510742 L 16.89200973510742 16.89200973510742 L 16.89200973510742 24.99990081787109 Z" stroke="none" fill="#fff"/>
    </g>
  </g>
</svg>
