<svg id="Map" xmlns="http://www.w3.org/2000/svg" width="22" height="24" viewBox="0 0 22 24">
  <g id="Icons_Nav_Map_-_Inactive" data-name="Icons/Nav/Map - Inactive" transform="translate(0 0)">
    <path id="Path" d="M19.8,9.3a8.752,8.752,0,0,1,.2,1.6,9.021,9.021,0,0,1-.9,4c-2,1.1-2.9.5-3.8-.2a2.6,2.6,0,0,0-2.6-.7,4.349,4.349,0,0,0-2.4,2.4,6.8,6.8,0,0,0-.3,3.5,8.427,8.427,0,0,1-5.1-2.4,4.142,4.142,0,0,0-.2-4.3,3.915,3.915,0,0,0-.8-1,1.1,1.1,0,0,1,.3-1.7A5.994,5.994,0,0,0,6.5,8.9C7.7,7.1,6.3,4.5,6,4a1.38,1.38,0,0,1-.3-.4A9.884,9.884,0,0,1,9,2.1,6.463,6.463,0,0,1,9.6,0,11,11,0,1,0,22,10.9a11.325,11.325,0,0,0-.6-3.6A15.583,15.583,0,0,1,19.8,9.3Z" transform="translate(0 2.1)" fill="#d0c9d6"/>
    <path id="Shape" d="M5,12a.905.905,0,0,1-.7-.3C3.79,11.318,0,7.747,0,5A4.952,4.952,0,0,1,5,0a4.952,4.952,0,0,1,5,5c0,2.747-3.789,6.317-4.3,6.7A.9.9,0,0,1,5,12ZM5,3A2,2,0,1,0,7,5,2,2,0,0,0,5,3Z" transform="translate(11)" fill="#ece9f1"/>
  </g>
</svg>
