<svg xmlns="http://www.w3.org/2000/svg" xmlns:xlink="http://www.w3.org/1999/xlink" width="20.5" height="22.611" viewBox="0 0 20.5 22.611">
  <defs>
    <clipPath id="clip-path">
      <rect width="20.5" height="22.611" fill="none"/>
    </clipPath>
  </defs>
  <g id="Notifications" clip-path="url(#clip-path)">
    <path id="Path" d="M17.7,9.318V7.455a7.455,7.455,0,0,0-14.909,0V9.318a4.138,4.138,0,0,1-1.442,2.975A3.9,3.9,0,0,0,0,14.909c0,2.33,3.832,3.727,10.25,3.727s10.25-1.4,10.25-3.727a3.9,3.9,0,0,0-1.354-2.616A4.138,4.138,0,0,1,17.7,9.318Z" fill="#d0c9d6"/>
    <path id="Path-2" data-name="Path" d="M0,0A3.668,3.668,0,0,0,3.5,2.571,3.668,3.668,0,0,0,7,0C5.9.081,4.739.123,3.5.123S1.1.083,0,0Z" transform="translate(6.75 20.04)" fill="#ece9f1"/>
  </g>
</svg>
