<svg xmlns="http://www.w3.org/2000/svg" width="25" height="25" viewBox="0 0 25 25">
  <g id="Groupe_2011" data-name="Groupe 2011" transform="translate(-99.997 -746)">
    <g id="Groupe_3" data-name="Groupe 3" transform="translate(99.997 746)">
      <g id="Groupe_2" data-name="Groupe 2">
        <path id="Tracé_1" data-name="Tracé 1" d="M24.9,22.639l-1.716-4.995a12.214,12.214,0,1,0-10.96,6.806h.019a12.263,12.263,0,0,0,5.4-1.265L22.642,24.9a1.794,1.794,0,0,0,.584.1A1.783,1.783,0,0,0,24.9,22.639Zm-1.473.789a.286.286,0,0,1-.308.071l-5.293-1.819a.741.741,0,0,0-.587.046,10.739,10.739,0,1,1,4.486-4.486.741.741,0,0,0-.046.587L23.5,23.121A.286.286,0,0,1,23.432,23.429Z" transform="translate(-0.003 0)" fill="#d0c9d6"/>
      </g>
    </g>
    <g id="Groupe_7" data-name="Groupe 7" transform="translate(108.415 752.234)">
      <g id="Groupe_6" data-name="Groupe 6">
        <path id="Tracé_3" data-name="Tracé 3" d="M176.082,127.674a3.691,3.691,0,0,0-3.687,3.687.741.741,0,1,0,1.482,0,2.205,2.205,0,1,1,2.205,2.205.741.741,0,0,0-.741.741v3.023a.741.741,0,0,0,1.482,0v-2.356a3.688,3.688,0,0,0-.741-7.3Z" transform="translate(-172.395 -127.674)" fill="#d0c9d7"/>
      </g>
    </g>
  </g>
</svg>
