<svg xmlns="http://www.w3.org/2000/svg" width="47.003" height="52.236" viewBox="0 0 47.003 52.236">
  <g id="Rounded" transform="translate(-2.997 -2)">
    <path id="Tracé_1120" data-name="Tracé 1120" d="M41.686,8.451a1.213,1.213,0,0,1-.6-.157A29.884,29.884,0,0,0,26.538,4.612,29.881,29.881,0,0,0,11.99,8.294,1.309,1.309,0,0,1,10.736,6,33.232,33.232,0,0,1,42.287,5.97a1.322,1.322,0,0,1-.6,2.481ZM4.311,22.163a1.361,1.361,0,0,1-.757-.235A1.3,1.3,0,0,1,3.24,20.1a27,27,0,0,1,9.794-8.541,30.149,30.149,0,0,1,26.928-.026,27.106,27.106,0,0,1,9.794,8.488,1.312,1.312,0,0,1-2.142,1.515,24.519,24.519,0,0,0-8.854-7.679,27.522,27.522,0,0,0-24.551.026,24.777,24.777,0,0,0-8.88,7.731A1.139,1.139,0,0,1,4.311,22.163ZM20.635,53.688a1.225,1.225,0,0,1-.914-.392,26.4,26.4,0,0,1-5.25-6.9,23.185,23.185,0,0,1-2.742-11.335c0-7.757,6.634-14.078,14.783-14.078s14.783,6.321,14.783,14.078a1.306,1.306,0,0,1-2.612,0c0-6.321-5.459-11.466-12.171-11.466S14.34,28.745,14.34,35.066a20.461,20.461,0,0,0,2.429,10.056A24.722,24.722,0,0,0,21.6,51.442a1.341,1.341,0,0,1,0,1.854A1.433,1.433,0,0,1,20.635,53.688Zm18.727-4.832a14.065,14.065,0,0,1-8.1-2.325,13.906,13.906,0,0,1-6.216-11.466,1.306,1.306,0,0,1,2.612,0,11.234,11.234,0,0,0,5.067,9.3,11.452,11.452,0,0,0,6.634,1.854,17.261,17.261,0,0,0,2.716-.261,1.312,1.312,0,0,1,.444,2.586A17.835,17.835,0,0,1,39.362,48.856Zm-5.25,5.38a1.528,1.528,0,0,1-.34-.052A20.378,20.378,0,0,1,24.056,48.7a19.057,19.057,0,0,1-5.668-13.634,7.876,7.876,0,0,1,8.044-7.679,7.876,7.876,0,0,1,8.044,7.679,5.446,5.446,0,0,0,10.865,0c0-9.847-8.488-17.839-18.936-17.839A19.068,19.068,0,0,0,9.143,27.753,16.8,16.8,0,0,0,7.6,35.066a25.955,25.955,0,0,0,1.75,9.429,1.275,1.275,0,0,1-.757,1.672,1.3,1.3,0,0,1-1.672-.757A29.1,29.1,0,0,1,5.016,35.066,19.622,19.622,0,0,1,6.792,26.6,21.675,21.675,0,0,1,26.407,14.589c11.884,0,21.548,9.167,21.548,20.451a8.053,8.053,0,0,1-16.089,0,5.26,5.26,0,0,0-5.433-5.067A5.26,5.26,0,0,0,21,35.04a16.448,16.448,0,0,0,4.884,11.779,17.76,17.76,0,0,0,8.541,4.832,1.3,1.3,0,0,1,.914,1.593A1.274,1.274,0,0,1,34.112,54.236Z" transform="translate(0 0)" fill="#454f63"/>
  </g>
</svg>
